<svg width="83" height="31" viewBox="0 0 83 31" fill="none" xmlns="http://www.w3.org/2000/svg">
<path d="M0 27.8561H5.79503V17.3633H14.2212V27.8508H20.0135V1.63482H14.2185V12.0528H5.79231V1.63482H0V27.8561ZM73.1799 11.5987C71.3506 10.9255 70.016 10.3646 70.016 8.75111C70.016 7.44219 71.1603 6.42977 73.6365 6.42977C76.5721 6.42977 79.3908 7.40479 81.4892 8.33974V2.99718C78.8935 1.69833 76.0164 1.03658 73.1038 1.06851C67.7301 1.06851 64.0715 4.43967 64.0715 8.67365C64.0715 12.718 66.4716 15.0393 70.5949 16.5005L73.9872 17.6999C75.8572 18.3731 76.9988 19.121 76.9988 20.6944C76.9988 22.4174 75.4359 23.1306 73.0739 23.1306C69.6056 23.1306 66.4036 21.9312 64.5363 21.0711V26.5766C67.1996 27.7982 70.0969 28.4492 73.0358 28.4865C79.7061 28.4865 82.9461 24.9658 82.9461 20.8467C82.9461 16.7276 80.5813 14.3287 76.4226 12.7928L73.1799 11.5987ZM45.9036 4.25802L54.4412 12.5737V27.8561H60.3884V10.1001L50.0079 0L45.9036 4.25802ZM24.9741 10.1001V27.8561H30.9186V12.5737L35.3029 8.33974L39.6845 12.5737V27.8561H45.6318V10.1001L35.3029 0L24.9741 10.1001Z" fill="#11223A"></path>
</svg>
